<svg width="16.971008" height="12.020996" viewBox="0 0 16.971 12.021" fill="none" xmlns="http://www.w3.org/2000/svg" xmlns:xlink="http://www.w3.org/1999/xlink">
	<path id="check" d="M6.36401 9.19287L15.556 0L16.971 1.41406L6.36401 12.021L0 5.65723L1.414 4.24316L6.36401 9.19287Z" fill="#1B1B1B" fill-opacity="1.000000" fill-rule="nonzero"/>

	<g id="coding">
		<g>
			<path d="M62.1562 0L3.71875 0C2.73282 0.000976562 1.78757 0.393066 1.09039 1.09033C0.39325 1.7876 0.00109863 2.73291 0 3.71875L0 40.9062C0.00109863 41.8921 0.39325 42.8374 1.09039 43.5347C1.78757 44.2319 2.73282 44.624 3.71875 44.625L24.9926 44.625L23.7177 47.8125L18.0625 47.8125C17.7807 47.8125 17.5105 47.9243 17.3112 48.1235C17.1119 48.3228 17 48.5933 17 48.875L17 51L10.625 51C10.3432 51 10.073 51.1118 9.87369 51.311C9.67444 51.5103 9.5625 51.7808 9.5625 52.0625C9.5625 52.3442 9.67444 52.6147 9.87369 52.814C10.073 53.0132 10.3432 53.125 10.625 53.125L55.25 53.125C55.5318 53.125 55.802 53.0132 56.0013 52.814C56.2006 52.6147 56.3125 52.3442 56.3125 52.0625C56.3125 51.7808 56.2006 51.5103 56.0013 51.311C55.802 51.1118 55.5318 51 55.25 51L48.875 51L48.875 48.875C48.875 48.5933 48.7631 48.3228 48.5638 48.1235C48.3645 47.9243 48.0943 47.8125 47.8125 47.8125L42.1573 47.8125L40.8824 44.625L62.1562 44.625C63.1422 44.624 64.0874 44.2319 64.7846 43.5347C65.4818 42.8374 65.8739 41.8921 65.875 40.9062L65.875 3.71875C65.8739 2.73291 65.4818 1.7876 64.7846 1.09033C64.0874 0.393066 63.1422 0.000976562 62.1562 0ZM46.75 49.9375L46.75 51L19.125 51L19.125 49.9375L46.75 49.9375ZM26.0074 47.8125L27.2823 44.625L38.5927 44.625L39.8676 47.8125L26.0074 47.8125ZM63.75 40.9062C63.7496 41.3286 63.5816 41.7339 63.2828 42.0327C62.984 42.3315 62.5788 42.4995 62.1562 42.5L3.71875 42.5C3.29617 42.4995 2.89099 42.3315 2.59219 42.0327C2.29337 41.7339 2.12537 41.3286 2.125 40.9062L2.125 38.25L63.75 38.25L63.75 40.9062ZM63.75 36.125L2.125 36.125L2.125 3.71875C2.12537 3.29639 2.29337 2.89111 2.59219 2.59229C2.89099 2.29346 3.29617 2.12549 3.71875 2.125L62.1562 2.125C62.5788 2.12549 62.984 2.29346 63.2828 2.59229C63.5816 2.89111 63.7496 3.29639 63.75 3.71875L63.75 36.125Z" fill="#FFB400" fill-opacity="1.000000" fill-rule="nonzero"/>
			<path d="M28.1044 27.4507C28.2211 27.5269 28.3517 27.5801 28.4888 27.606C28.6259 27.6323 28.7667 27.6309 28.9034 27.6025C29.04 27.5742 29.1697 27.519 29.285 27.4409C29.4004 27.3623 29.4992 27.2617 29.5757 27.145L37.9429 14.395C38.0976 14.1597 38.1523 13.8721 38.095 13.5962C38.0378 13.3203 37.8733 13.0786 37.6377 12.9238C37.4022 12.769 37.1148 12.7144 36.8389 12.7715C36.5629 12.8291 36.3211 12.9932 36.1664 13.229L27.7992 25.979C27.7226 26.0957 27.6697 26.2261 27.6436 26.3633C27.6175 26.5005 27.6187 26.6411 27.647 26.7778C27.6753 26.9146 27.7303 27.0444 27.8088 27.1597C27.8873 27.2754 27.9878 27.374 28.1044 27.4507Z" fill="#FFB400" fill-opacity="1.000000" fill-rule="nonzero"/>
			<path d="M39.6948 27.3784C39.9113 27.5591 40.1906 27.646 40.4712 27.6201C40.7518 27.5947 41.0108 27.459 41.1912 27.2422L46.5037 20.8672C46.6628 20.6763 46.7499 20.4355 46.7499 20.187C46.7499 19.9385 46.6628 19.6982 46.5037 19.5073L41.1912 13.1323C41.1022 13.0239 40.9926 12.9346 40.8689 12.8691C40.7452 12.8032 40.6098 12.7627 40.4703 12.75C40.3309 12.7368 40.1903 12.7515 40.0565 12.793C39.9228 12.834 39.7985 12.9019 39.6909 12.9912C39.5834 13.0811 39.4946 13.1909 39.4297 13.3149C39.3647 13.439 39.325 13.5747 39.3127 13.7144C39.3004 13.854 39.3158 13.9946 39.358 14.1279C39.4002 14.2612 39.4684 14.3853 39.5587 14.4922L44.3043 20.187L39.5587 25.8823C39.3783 26.0986 39.2913 26.3779 39.3168 26.6587C39.3423 26.939 39.4783 27.1982 39.6948 27.3784Z" fill="#FFB400" fill-opacity="1.000000" fill-rule="nonzero"/>
			<path d="M24.6837 27.2422C24.7727 27.3506 24.8823 27.4399 25.006 27.5054C25.1297 27.5713 25.2651 27.6118 25.4046 27.6245C25.544 27.6377 25.6846 27.623 25.8184 27.5815C25.9521 27.54 26.0764 27.4727 26.184 27.3833C26.2915 27.2935 26.3803 27.1836 26.4453 27.0596C26.5102 26.9351 26.5499 26.7998 26.5622 26.6602C26.5745 26.5205 26.5591 26.3799 26.5169 26.2466C26.4747 26.1128 26.4065 25.9893 26.3163 25.8823L21.5706 20.187L26.3163 14.4922C26.4065 14.3853 26.4747 14.2612 26.5169 14.1279C26.5591 13.9946 26.5745 13.854 26.5622 13.7144C26.5499 13.5747 26.5102 13.439 26.4453 13.3149C26.3803 13.1909 26.2915 13.0811 26.184 12.9912C26.0764 12.9019 25.9521 12.834 25.8184 12.793C25.6846 12.7515 25.544 12.7368 25.4046 12.75C25.2651 12.7627 25.1297 12.8032 25.006 12.8691C24.8823 12.9346 24.7727 13.0239 24.6837 13.1323L19.3712 19.5073C19.2121 19.6982 19.125 19.9385 19.125 20.187C19.125 20.4355 19.2121 20.6763 19.3712 20.8672L24.6837 27.2422Z" fill="#FFB400" fill-opacity="1.000000" fill-rule="nonzero"/>
		</g>
	</g>

	<g id="dribble">
		<path d="M10.4936 5.5835C10.4458 4.66553 10.1264 3.78223 9.576 3.04541C9.40829 3.22607 9.22903 3.39551 9.03934 3.55322C8.45654 4.03711 7.80528 4.43213 7.10675 4.72559C7.20416 4.92969 7.29341 5.12744 7.37216 5.31396L7.37216 5.31592C7.39439 5.36816 7.41577 5.42041 7.43634 5.47363C8.3195 5.37402 9.2505 5.41064 10.1529 5.53223C10.2731 5.54883 10.3862 5.56641 10.4936 5.5835ZM5.019 1.23779C5.58748 2.03906 6.11171 2.87061 6.58934 3.72852C7.30275 3.44727 7.8925 3.09277 8.36734 2.69775C8.53215 2.56201 8.6873 2.41504 8.83167 2.25732C7.99223 1.55127 6.93018 1.16504 5.83333 1.1665C5.56035 1.1665 5.28787 1.18994 5.019 1.2373L5.019 1.23779ZM1.31425 4.66504C1.71164 4.65479 2.10854 4.63086 2.50426 4.59326C3.46071 4.50781 4.409 4.34717 5.34042 4.11377C4.85364 3.26807 4.32808 2.44531 3.76541 1.64795C3.16441 1.9458 2.63449 2.36914 2.21156 2.88965C1.78864 3.41016 1.4826 4.01562 1.31425 4.66504ZM2.20676 8.77051C2.43309 8.43945 2.73059 8.06738 3.1255 7.6626C3.97366 6.79346 4.97467 6.1167 6.13316 5.74365L6.16933 5.73291C6.07309 5.52051 5.98267 5.33105 5.89166 5.15234C4.82066 5.46484 3.6925 5.65967 2.56842 5.76025C2.02008 5.81006 1.52834 5.83154 1.16667 5.83496C1.16563 6.9043 1.53317 7.94092 2.20734 8.77051L2.20676 8.77051ZM7.58624 10.1587C7.3613 9.02441 7.04288 7.91064 6.63425 6.82861C5.46642 7.25244 4.536 7.87256 3.81676 8.6123C3.52649 8.90527 3.26889 9.229 3.04849 9.57764C3.8528 10.1777 4.82982 10.5015 5.83333 10.5C6.43411 10.501 7.02937 10.3853 7.58624 10.1602L7.58624 10.1587ZM8.67883 9.53174C9.58957 8.83154 10.21 7.81982 10.4212 6.69092C10.2229 6.64111 9.9715 6.5918 9.69501 6.55322C9.08025 6.46484 8.45645 6.45801 7.84 6.53369C8.18712 7.51318 8.46738 8.51514 8.67883 9.53223L8.67883 9.53174ZM5.83333 11.6665C2.61159 11.6665 0 9.05518 0 5.8335C0 2.61182 2.61159 0 5.83333 0C9.05508 0 11.6667 2.61182 11.6667 5.8335C11.6667 9.05518 9.05508 11.6665 5.83333 11.6665Z" fill="#FFB400" fill-opacity="1.000000" fill-rule="nonzero"/>
	</g>

	<g id="facebook">
		<path d="M4.08333 6.7085L5.54167 6.7085L6.125 4.375L4.08333 4.375L4.08333 3.2085C4.08333 2.60742 4.08333 2.0415 5.25 2.0415L6.125 2.0415L6.125 0.081543C5.93483 0.0566406 5.21675 0 4.45842 0C2.87466 0 1.75 0.966797 1.75 2.7417L1.75 4.375L0 4.375L0 6.7085L1.75 6.7085L1.75 11.6665L4.08333 11.6665L4.08333 6.7085Z" fill="#1B1B1B" fill-opacity="1.000000" fill-rule="nonzero"/>
	</g>

	<g id="feather">
		<path d="M13.5 0C2.25 0 0.75 10.5 0 15L1.4985 15C1.998 12.5005 3.24825 11.1255 5.25 10.875C8.25 10.5 10.5 7.875 11.25 5.625L10.125 4.875L10.875 4.125C11.625 3.375 12.378 2.25 13.5 0Z" fill="#FFB400" fill-opacity="1.000000" fill-rule="nonzero"/>
	</g>

	<g id="gameDeveloper">
		<g clip-path="url(#clip1_1507)">
		<path id="Vector" d="M32.375 38.1562L41.625 38.1562L41.625 40.4688L32.375 40.4688L32.375 38.1562Z" fill="#FFB400" fill-opacity="1.000000" fill-rule="nonzero"/>
		<path id="Vector" d="M35.8438 34.6875L38.1562 34.6875L38.1562 43.9375L35.8438 43.9375L35.8438 34.6875Z" fill="#FFB400" fill-opacity="1.000000" fill-rule="nonzero"/>
		<path id="Vector" d="M65.9062 38.1562L68.2188 38.1562L68.2188 40.4688L65.9062 40.4688L65.9062 38.1562Z" fill="#FFB400" fill-opacity="1.000000" fill-rule="nonzero"/>
		<path id="Vector" d="M56.6562 38.1562L58.9688 38.1562L58.9688 40.4688L56.6562 40.4688L56.6562 38.1562Z" fill="#FFB400" fill-opacity="1.000000" fill-rule="nonzero"/>
		<path id="Vector" d="M61.2812 33.5312L63.5938 33.5312L63.5938 35.8438L61.2812 35.8438L61.2812 33.5312Z" fill="#FFB400" fill-opacity="1.000000" fill-rule="nonzero"/>
		<path id="Vector" d="M61.2812 42.7812L63.5938 42.7812L63.5938 45.0938L61.2812 45.0938L61.2812 42.7812Z" fill="#FFB400" fill-opacity="1.000000" fill-rule="nonzero"/>
		<path id="Vector" d="M10.6597 20.3789L5.4566 13.875L10.6597 7.37109L12.4652 8.81641L8.41837 13.875L12.4652 18.9336L10.6597 20.3789Z" fill="#FFB400" fill-opacity="1.000000" fill-rule="nonzero"/>
		<path id="Vector" d="M28.6527 20.3789L26.8472 18.9336L30.8952 13.875L26.8472 8.81641L28.6527 7.37109L33.8547 13.875L28.6527 20.3789Z" fill="#FFB400" fill-opacity="1.000000" fill-rule="nonzero"/>
		<path id="Vector" d="M14.7377 17.7368L22.8337 8.48926L24.5737 10.0117L16.4777 19.2603L14.7377 17.7368Z" fill="#FFB400" fill-opacity="1.000000" fill-rule="nonzero"/>
		<path id="Vector" d="M9.25 50.875L4.625 50.875L4.625 46.25L6.9375 46.25L6.9375 48.5625L9.25 48.5625L9.25 50.875Z" fill="#FFB400" fill-opacity="1.000000" fill-rule="nonzero"/>
		<path id="Vector" d="M70.5312 2.3125L3.46875 2.3125C1.55316 2.3125 0 3.86572 0 5.78125L0 52.0312C0 53.9468 1.55316 55.5 3.46875 55.5L27.75 55.5L27.75 61.2812C27.75 63.1968 26.1968 64.75 24.2812 64.75L18.5 64.75L18.5 71.6875L55.5 71.6875L55.5 64.75L49.7188 64.75C47.8032 64.75 46.25 63.1968 46.25 61.2812L46.25 55.5L70.5312 55.5C72.4468 55.5 74 53.9468 74 52.0312L74 5.78125C74 3.86572 72.4468 2.3125 70.5312 2.3125ZM53.1875 67.0625L53.1875 69.375L20.8125 69.375L20.8125 67.0625L53.1875 67.0625ZM37 62.4858C38.9156 62.4858 40.4688 60.9331 40.4688 59.0171L40.4688 55.5L43.9375 55.5L43.9375 61.2812C43.942 62.5361 44.3587 63.7554 45.1237 64.75L28.8763 64.75C29.6413 63.7554 30.058 62.5361 30.0625 61.2812L30.0625 55.5L33.5312 55.5L33.5312 59.0171C33.5312 60.9331 35.0844 62.4858 37 62.4858ZM35.8438 59.0171L35.8438 55.5L38.1562 55.5L38.1562 59.0171C38.1562 59.6558 37.6385 60.1733 37 60.1733C36.3615 60.1733 35.8438 59.6558 35.8438 59.0171ZM71.6875 52.0312C71.6875 52.6699 71.1698 53.1875 70.5312 53.1875L3.46875 53.1875C2.8302 53.1875 2.3125 52.6699 2.3125 52.0312L2.3125 41.625L25.669 41.625C26.6265 46.332 30.3956 49.9551 35.1369 50.7261C39.8776 51.4971 44.6009 49.2549 47.0003 45.0938L52.4349 45.0938C54.3726 48.4624 57.8774 50.6289 61.7572 50.856C65.637 51.0825 69.3699 49.3398 71.6875 46.2202L71.6875 52.0312ZM62.4375 48.5625C58.923 48.5708 55.7112 46.5757 54.1608 43.4219L53.8407 42.7812L45.5968 42.7812L45.2767 43.4219C43.2487 47.5107 38.5419 49.5098 34.1918 48.1294C29.8412 46.7485 27.1482 42.4019 27.8494 37.8916C28.55 33.3818 32.436 30.0576 37 30.0625L62.4375 30.0625C67.5463 30.0625 71.6875 34.2036 71.6875 39.3125C71.6875 44.4214 67.5463 48.5625 62.4375 48.5625ZM71.6875 32.4048C69.5128 29.4795 66.0829 27.7534 62.4375 27.75L37 27.75C30.6169 27.7568 25.4443 32.9292 25.4375 39.3125L2.3125 39.3125L2.3125 5.78125C2.3125 5.14258 2.8302 4.625 3.46875 4.625L70.5312 4.625C71.1698 4.625 71.6875 5.14258 71.6875 5.78125L71.6875 32.4048Z" fill="#FFB400" fill-opacity="1.000000" fill-rule="nonzero"/>
		<path id="Vector" d="M47.4062 38.1562L52.0312 38.1562L52.0312 40.4688L47.4062 40.4688L47.4062 38.1562Z" fill="#FFB400" fill-opacity="1.000000" fill-rule="nonzero"/>
		<path id="Vector" d="M34.6875 9.25L43.9375 9.25L43.9375 11.5625L34.6875 11.5625L34.6875 9.25Z" fill="#FFB400" fill-opacity="1.000000" fill-rule="nonzero"/>
		<path id="Vector" d="M48.5625 9.25L67.0625 9.25L67.0625 11.5625L48.5625 11.5625L48.5625 9.25Z" fill="#FFB400" fill-opacity="1.000000" fill-rule="nonzero"/>
		<path id="Vector" d="M50.875 13.875L67.0625 13.875L67.0625 16.1875L50.875 16.1875L50.875 13.875Z" fill="#FFB400" fill-opacity="1.000000" fill-rule="nonzero"/>
		<path id="Vector" d="M37 13.875L46.25 13.875L46.25 16.1875L37 16.1875L37 13.875Z" fill="#FFB400" fill-opacity="1.000000" fill-rule="nonzero"/>
		<path id="Vector" d="M34.6875 18.5L57.8125 18.5L57.8125 20.8125L34.6875 20.8125L34.6875 18.5Z" fill="#FFB400" fill-opacity="1.000000" fill-rule="nonzero"/>
		<path id="Vector" d="M62.4375 18.5L67.0625 18.5L67.0625 20.8125L62.4375 20.8125L62.4375 18.5Z" fill="#FFB400" fill-opacity="1.000000" fill-rule="nonzero"/>
		<path id="Vector" d="M6.9375 23.125L18.5 23.125L18.5 25.4375L6.9375 25.4375L6.9375 23.125Z" fill="#FFB400" fill-opacity="1.000000" fill-rule="nonzero"/>
		<path id="Vector" d="M23.125 23.125L45.0938 23.125L45.0938 25.4375L23.125 25.4375L23.125 23.125Z" fill="#FFB400" fill-opacity="1.000000" fill-rule="nonzero"/>
		<path id="Vector" d="M48.5625 23.125L67.0625 23.125L67.0625 25.4375L48.5625 25.4375L48.5625 23.125Z" fill="#FFB400" fill-opacity="1.000000" fill-rule="nonzero"/>
		<path id="Vector" d="M6.9375 27.75L25.4375 27.75L25.4375 30.0625L6.9375 30.0625L6.9375 27.75Z" fill="#FFB400" fill-opacity="1.000000" fill-rule="nonzero"/>
		<path id="Vector" d="M6.9375 32.375L16.1875 32.375L16.1875 34.6875L6.9375 34.6875L6.9375 32.375Z" fill="#FFB400" fill-opacity="1.000000" fill-rule="nonzero"/>
		<path id="Vector" d="M18.5 32.375L23.125 32.375L23.125 34.6875L18.5 34.6875L18.5 32.375Z" fill="#FFB400" fill-opacity="1.000000" fill-rule="nonzero"/>
		</g>
	</g>

	<g id="home">
		<path d="M14.25 13.9863C14.25 14.1851 14.171 14.376 14.0303 14.5166C13.8897 14.6572 13.6989 14.7363 13.5 14.7363L3 14.7363C2.80109 14.7363 2.61032 14.6572 2.46967 14.5166C2.32902 14.376 2.25 14.1851 2.25 13.9863L2.25 7.23633L0 7.23633L7.74525 0.195312C7.88333 0.0698242 8.06331 0 8.25 0C8.43669 0 8.61667 0.0698242 8.75475 0.195312L16.5 7.23633L14.25 7.23633L14.25 13.9863Z" fill="#FFB400" fill-opacity="1.000000" fill-rule="nonzero"/>
	</g>

	<g id="UI/UX">
		<g>
			<path id="Vector" d="M31.6094 48.7402C31.0591 48.7402 30.6133 49.186 30.6133 49.7363C30.6133 50.2866 31.0591 50.7324 31.6094 50.7324L36.3906 50.7324C36.9409 50.7324 37.3867 50.2866 37.3867 49.7363C37.3867 49.186 36.9409 48.7402 36.3906 48.7402L31.6094 48.7402Z" fill="#FFB400" fill-opacity="1.000000" fill-rule="nonzero"/>
			<path id="Vector" d="M11.9531 33.2734L18.5374 33.2734C18.9396 34.3203 19.9528 35.0664 21.1394 35.0664C22.3259 35.0664 23.3391 34.3203 23.7413 33.2734L25.0573 33.2734C25.6076 33.2734 26.0534 32.8276 26.0534 32.2773C26.0534 31.7271 25.6076 31.2812 25.0573 31.2812L23.7413 31.2812C23.3391 30.2344 22.3259 29.4883 21.1394 29.4883C19.9528 29.4883 18.9396 30.2344 18.5374 31.2812L11.9531 31.2812C11.4029 31.2812 10.957 31.7271 10.957 32.2773C10.957 32.8276 11.4029 33.2734 11.9531 33.2734ZM21.1394 31.4805C21.5788 31.4805 21.9362 31.8379 21.9362 32.2773C21.9362 32.7168 21.5788 33.0742 21.1394 33.0742C20.6999 33.0742 20.3425 32.7168 20.3425 32.2773C20.3425 31.8379 20.6999 31.4805 21.1394 31.4805Z" fill="#FFB400" fill-opacity="1.000000" fill-rule="nonzero"/>
			<path id="Vector" d="M11.9531 27.5625L13.2249 27.5625C13.6271 28.6094 14.6403 29.3555 15.8269 29.3555C17.0134 29.3555 18.0266 28.6094 18.4288 27.5625L25.0573 27.5625C25.6076 27.5625 26.0534 27.1167 26.0534 26.5664C26.0534 26.0161 25.6076 25.5703 25.0573 25.5703L18.4288 25.5703C18.0266 24.5234 17.0134 23.7773 15.8269 23.7773C14.6403 23.7773 13.6271 24.5234 13.2249 25.5703L11.9531 25.5703C11.4029 25.5703 10.957 26.0161 10.957 26.5664C10.957 27.1167 11.4029 27.5625 11.9531 27.5625ZM15.8269 25.7695C16.2663 25.7695 16.6237 26.127 16.6237 26.5664C16.6237 27.0059 16.2663 27.3633 15.8269 27.3633C15.3874 27.3633 15.03 27.0059 15.03 26.5664C15.03 26.127 15.3874 25.7695 15.8269 25.7695Z" fill="#FFB400" fill-opacity="1.000000" fill-rule="nonzero"/>
			<path id="Vector" d="M26.2527 17.4023C26.2527 17.9526 25.8067 18.3984 25.2566 18.3984C24.7064 18.3984 24.2605 17.9526 24.2605 17.4023C24.2605 16.8521 24.7064 16.4062 25.2566 16.4062C25.8067 16.4062 26.2527 16.8521 26.2527 17.4023Z" fill="#FFB400" fill-opacity="1.000000" fill-rule="evenodd"/>
			<path id="Vector" d="M23.5078 17.4023C23.5078 17.9526 23.0618 18.3984 22.5117 18.3984C21.9616 18.3984 21.5156 17.9526 21.5156 17.4023C21.5156 16.8521 21.9616 16.4062 22.5117 16.4062C23.0618 16.4062 23.5078 16.8521 23.5078 17.4023Z" fill="#FFB400" fill-opacity="1.000000" fill-rule="evenodd"/>
			<path id="Vector" d="M20.763 17.4023C20.763 17.9526 20.317 18.3984 19.7669 18.3984C19.2168 18.3984 18.7708 17.9526 18.7708 17.4023C18.7708 16.8521 19.2168 16.4062 19.7669 16.4062C20.317 16.4062 20.763 16.8521 20.763 17.4023Z" fill="#FFB400" fill-opacity="1.000000" fill-rule="evenodd"/>
			<path id="Vector" d="M65.0117 6.10645L64.6386 6.10645L64.9169 5.82861C65.7503 4.99512 65.7503 3.63867 64.9169 2.80566L62.7364 0.625C61.903 -0.208496 60.547 -0.208496 59.7134 0.625L54.2321 6.10645L2.98828 6.10645C1.34061 6.10645 0 7.44678 0 9.09473L0 50.4609C0 52.4751 1.63837 54.1133 3.65234 54.1133L27.2458 54.1133L27.2458 61.1597L22.4453 61.1597C21.1638 61.1597 20.1211 62.2026 20.1211 63.4839L20.1211 64.4795C20.1211 65.7607 21.1638 66.8037 22.4453 66.8037L45.5547 66.8037C46.8362 66.8037 47.8789 65.7607 47.8789 64.4795L47.8789 63.4839C47.8789 62.2026 46.8362 61.1597 45.5547 61.1597L40.7542 61.1597L40.7542 54.1133L51.3984 54.1133C51.9487 54.1133 52.3945 53.6675 52.3945 53.1172C52.3945 52.5674 51.9487 52.1211 51.3984 52.1211L3.65234 52.1211C2.73688 52.1211 1.99219 51.3765 1.99219 50.4609L1.99219 47.5127L66.0078 47.5127L66.0078 50.4609C66.0078 51.3765 65.2631 52.1211 64.3477 52.1211L56.0469 52.1211C55.4966 52.1211 55.0508 52.5674 55.0508 53.1172C55.0508 53.6675 55.4966 54.1133 56.0469 54.1133L64.3477 54.1133C66.3616 54.1133 68 52.4751 68 50.4609L68 9.09473C68 7.44727 66.6594 6.10645 65.0117 6.10645ZM45.5547 63.1523C45.7378 63.1523 45.8867 63.3013 45.8867 63.4844L45.8867 64.4795C45.8867 64.6626 45.7378 64.8115 45.5547 64.8115L22.4453 64.8115C22.2622 64.8115 22.1133 64.6626 22.1133 64.4795L22.1133 63.4844C22.1133 63.3013 22.2622 63.1523 22.4453 63.1523L45.5547 63.1523ZM29.238 54.1138L38.7621 54.1138L38.7621 61.1602L29.238 61.1602L29.238 54.1138ZM61.1222 2.03369C61.179 1.97705 61.2712 1.97705 61.3278 2.03369L63.5081 4.21436C63.5648 4.271 63.5648 4.36328 63.5081 4.41992L61.4276 6.50049L59.0417 4.11426L61.1222 2.03369ZM57.6329 5.52295L60.0188 7.90918L59.324 8.604L56.9382 6.21777L57.6329 5.52295ZM55.5294 7.62646L57.9154 10.0127L46.1282 21.7998L43.7422 19.4136L55.5294 7.62646ZM54.0547 16.7334C55.4095 16.7334 56.5117 17.8354 56.5117 19.1904C56.5117 20.5454 55.4095 21.6475 54.0547 21.6475C52.6999 21.6475 51.5977 20.5454 51.5977 19.1904C51.5977 19.1748 51.5998 19.1592 51.6001 19.1436L54.0082 16.7358C54.0237 16.7354 54.039 16.7334 54.0547 16.7334ZM44.3984 22.8877L41.4504 24.0918L42.6545 21.1436L44.3984 22.8877ZM66.0078 45.5205L1.99219 45.5205L1.99219 9.09473C1.99219 8.5459 2.43896 8.09863 2.98828 8.09863L52.2401 8.09863L50.7212 9.61768L16.8672 9.61768C16.3169 9.61768 15.8711 10.0635 15.8711 10.6138C15.8711 11.1641 16.3169 11.6099 16.8672 11.6099L48.7292 11.6099L41.7033 18.6362C41.5047 18.8364 41.3494 19.0703 41.2425 19.332L39.0175 24.7793C38.8134 25.2798 38.9284 25.8496 39.3105 26.2319C39.567 26.4883 39.908 26.624 40.2559 26.624C40.4264 26.624 40.5984 26.5913 40.7629 26.5244L46.2103 24.2998C46.4644 24.1958 46.6918 24.0454 46.8884 23.855L49.9186 20.8247C50.5714 22.4717 52.1785 23.6396 54.0548 23.6396C56.5081 23.6396 58.504 21.644 58.504 19.1904C58.504 17.3145 57.3362 15.7075 55.6897 15.0547L59.1348 11.6099L62.4968 11.6099L62.4968 42.0098L61.9688 42.0098L58.359 35.7573C58.0841 35.2808 57.4745 35.1177 56.9984 35.3931C56.5219 35.668 56.3587 36.2773 56.6338 36.7534L59.6685 42.0098L45.7538 42.0098L44.2614 39.4248L51.2188 27.3745L54.3094 32.728C54.5846 33.2041 55.1938 33.3677 55.6701 33.0923C56.1465 32.8174 56.3097 32.208 56.0347 31.7319L52.7373 26.0205C52.4203 25.4717 51.8527 25.144 51.2186 25.144C50.5846 25.144 50.0168 25.4717 49.6998 26.0205L43.1109 37.4331L34.6569 22.79C34.3399 22.2412 33.7722 21.9136 33.138 21.9136C32.5041 21.9136 31.9364 22.2412 31.6193 22.79L29.3734 26.6802L29.3734 16.0034C29.3734 14.7217 28.3306 13.6792 27.0491 13.6792L9.96094 13.6792C8.67944 13.6792 7.63672 14.7217 7.63672 16.0034L7.63672 37.7842C7.63672 38.6997 8.38141 39.4443 9.29688 39.4443L22.0042 39.4443L20.5231 42.0098L5.50336 42.0098L5.50336 11.6099L12.2188 11.6099C12.769 11.6099 13.2148 11.1641 13.2148 10.6138C13.2148 10.0635 12.769 9.61768 12.2188 9.61768L5.17133 9.61768C4.25583 9.61768 3.51117 10.3623 3.51117 11.2778L3.51117 42.3418C3.51117 43.2573 4.25583 44.002 5.17133 44.002L62.8288 44.002C63.7443 44.002 64.489 43.2573 64.489 42.3418L64.489 11.2778C64.489 10.3623 63.7443 9.61768 62.8288 9.61768L61.1272 9.61768L62.6463 8.09863L65.0117 8.09863C65.561 8.09863 66.0078 8.5459 66.0078 9.09473L66.0078 45.5205ZM27.3816 21.5195L27.3816 37.4521L9.62891 37.4521L9.62891 21.5195L27.3816 21.5195ZM9.62891 19.5273L9.62891 16.0029C9.62891 15.8198 9.7778 15.6709 9.96094 15.6709L27.0495 15.6709C27.2327 15.6709 27.3816 15.8198 27.3816 16.0029L27.3816 19.5273L9.62891 19.5273ZM24.3047 39.4443L27.7136 39.4443C28.6291 39.4443 29.3737 38.6997 29.3737 37.7842L29.3737 35.6743C29.6229 35.7935 29.9003 35.8584 30.1909 35.8584C30.8709 35.8584 31.4798 35.5068 31.8196 34.918L33.5148 31.9819C33.5661 31.8931 33.6445 31.8745 33.7009 31.8745C33.7576 31.8745 33.836 31.8931 33.8871 31.9819L34.9322 33.792C35.2722 34.3809 35.8812 34.7324 36.5613 34.7324C37.2413 34.7324 37.8502 34.3809 38.1901 33.792L38.4496 33.3428L43.4535 42.0098L22.8236 42.0098L24.3047 39.4443ZM29.3737 32.3398L29.3737 30.6646L33.1386 24.1436L37.2993 31.3506L36.5612 32.6289L35.6124 30.9858C35.2134 30.2944 34.4988 29.8823 33.7008 29.8823C32.9028 29.8823 32.1883 30.2944 31.7893 30.9858L30.1905 33.7549L29.3737 32.3398Z" fill="#FFB400" fill-opacity="1.000000" fill-rule="nonzero"/>
		</g>
	</g>

	<g id="instagram">
		<path d="M5.83333 0C7.41824 0 7.616 0.00585938 8.23784 0.0351562C8.85909 0.0639648 9.282 0.161621 9.65417 0.306152C10.0392 0.45459 10.3635 0.655273 10.6878 0.979004C10.9845 1.27051 11.214 1.62305 11.3604 2.0127C11.5045 2.38428 11.6025 2.80762 11.6317 3.42871C11.6591 4.05078 11.6667 4.24854 11.6667 5.8335C11.6667 7.41846 11.6608 7.61621 11.6317 8.23779C11.6025 8.85889 11.5045 9.28223 11.3604 9.6543C11.2144 10.0439 10.9848 10.3965 10.6878 10.688C10.3961 10.9844 10.0434 11.2139 9.65417 11.3604C9.28258 11.5044 8.85909 11.6025 8.23784 11.6318C7.616 11.6592 7.41824 11.6665 5.83333 11.6665C4.24841 11.6665 4.05066 11.6606 3.42883 11.6318C2.80759 11.6025 2.38467 11.5044 2.0125 11.3604C1.62302 11.2144 1.27022 10.9849 0.978836 10.688C0.682159 10.3965 0.452621 10.0435 0.306244 9.6543C0.161591 9.28271 0.0641632 8.85889 0.0350037 8.23779C0.00758362 7.61621 0 7.41846 0 5.8335C0 4.24854 0.00582886 4.05078 0.0350037 3.42871C0.0641632 2.80713 0.161591 2.38477 0.306244 2.0127C0.452225 1.62305 0.681808 1.27002 0.978836 0.979004C1.27031 0.682129 1.62308 0.452637 2.0125 0.306152C2.38467 0.161621 2.80701 0.0639648 3.42883 0.0351562C4.05066 0.0078125 4.24841 0 5.83333 0ZM5.83333 2.9165C5.05978 2.9165 4.31792 3.22412 3.77094 3.771C3.22395 4.31787 2.91667 5.05957 2.91667 5.8335C2.91667 6.60693 3.22395 7.34863 3.77094 7.89551C4.31792 8.44287 5.05978 8.75 5.83333 8.75C6.60689 8.75 7.34875 8.44287 7.89572 7.89551C8.4427 7.34863 8.75 6.60693 8.75 5.8335C8.75 5.05957 8.4427 4.31787 7.89572 3.771C7.34875 3.22412 6.60689 2.9165 5.83333 2.9165ZM9.625 2.771C9.625 2.57764 9.54817 2.39209 9.41144 2.25537C9.27469 2.11865 9.08922 2.0415 8.89583 2.0415C8.70245 2.0415 8.51698 2.11865 8.38023 2.25537C8.24348 2.39209 8.16667 2.57764 8.16667 2.771C8.16667 2.96436 8.24348 3.1499 8.38023 3.28662C8.51698 3.42334 8.70245 3.5 8.89583 3.5C9.08922 3.5 9.27469 3.42334 9.41144 3.28662C9.54817 3.1499 9.625 2.96436 9.625 2.771ZM5.83333 4.0835C6.29745 4.0835 6.74258 4.26758 7.07077 4.5957C7.39896 4.92432 7.58333 5.36914 7.58333 5.8335C7.58333 6.29736 7.39896 6.74268 7.07077 7.0708C6.74258 7.39893 6.29745 7.5835 5.83333 7.5835C5.3692 7.5835 4.92409 7.39893 4.5959 7.0708C4.2677 6.74268 4.08333 6.29736 4.08333 5.8335C4.08333 5.36914 4.2677 4.92432 4.5959 4.5957C4.92409 4.26758 5.3692 4.0835 5.83333 4.0835Z" fill="#1B1B1B" fill-opacity="1.000000" fill-rule="nonzero"/>
	</g>

	<g id="job">
		<path d="M5.25 9L5.25 11.25L9.75 11.25L9.75 9L15 9L15 14.25C15 14.4487 14.921 14.6396 14.7803 14.7803C14.6397 14.9209 14.4489 15 14.25 15L0.75 15C0.551086 15 0.360321 14.9209 0.219673 14.7803C0.0790176 14.6396 0 14.4487 0 14.25L0 9L5.25 9ZM6.75 7.5L8.25 7.5L8.25 9.75L6.75 9.75L6.75 7.5ZM3.75 3L3.75 0.75C3.75 0.55127 3.82902 0.360352 3.96967 0.219727C4.11032 0.0791016 4.30109 0 4.5 0L10.5 0C10.6989 0 10.8897 0.0791016 11.0303 0.219727C11.171 0.360352 11.25 0.55127 11.25 0.75L11.25 3L14.25 3C14.4489 3 14.6397 3.0791 14.7803 3.21973C14.921 3.36035 15 3.55127 15 3.75L15 7.5L9.75 7.5L9.75 6L5.25 6L5.25 7.5L0 7.5L0 3.75C0 3.55127 0.0790176 3.36035 0.219673 3.21973C0.360321 3.0791 0.551086 3 0.75 3L3.75 3ZM5.25 1.5L5.25 3L9.75 3L9.75 1.5L5.25 1.5Z" fill="#FFB400" fill-opacity="1.000000" fill-rule="nonzero"/>
	</g>

	<g id="mail">
		<path d="M0.75 0L14.25 0C14.4489 0 14.6397 0.0791016 14.7803 0.219727C14.921 0.360352 15 0.55127 15 0.75L15 12.75C15 12.9487 14.921 13.1396 14.7803 13.2803C14.6397 13.4209 14.4489 13.5 14.25 13.5L0.75 13.5C0.551086 13.5 0.360321 13.4209 0.219666 13.2803C0.07901 13.1396 0 12.9487 0 12.75L0 0.75C0 0.55127 0.07901 0.360352 0.219666 0.219727C0.360321 0.0791016 0.551086 0 0.75 0ZM7.54501 6.51221L2.73599 2.42871L1.76474 3.57129L7.55475 8.48779L13.2405 3.56787L12.2595 2.43311L7.54575 6.51221L7.54501 6.51221Z" fill="#FFB400" fill-opacity="1.000000" fill-rule="nonzero"/>
	</g>

	<g id="map">
		<path d="M0 2.25L5.25 0L9.75 2.25L14.4773 0.224121C14.5343 0.199707 14.5966 0.189941 14.6584 0.195312C14.7202 0.201172 14.7798 0.22168 14.8316 0.255859C14.8834 0.290039 14.9259 0.336426 14.9553 0.391113C14.9847 0.445801 15.0001 0.507324 15 0.569336L15 12.75L9.75 15L5.25 12.75L0.522736 14.7759C0.465698 14.8003 0.403442 14.8101 0.341614 14.8047C0.279755 14.7988 0.220245 14.7783 0.168427 14.7441C0.116608 14.71 0.0740967 14.6636 0.0447083 14.6089C0.0153198 14.5542 -6.10352e-05 14.4927 0 14.4307L0 2.25ZM9.75 13.3232L9.75 3.88184L9.70126 3.90283L5.25 1.67676L5.25 11.1182L5.29874 11.0972L9.75 13.3232Z" fill="#FFB400" fill-opacity="1.000000" fill-rule="nonzero"/>
	</g>

	<g id="message">
		<path d="M3.34125 12L0 14.625L0 0.75C0 0.55127 0.0790176 0.360352 0.219673 0.219727C0.360321 0.0791016 0.551086 0 0.75 0L14.25 0C14.4489 0 14.6397 0.0791016 14.7803 0.219727C14.921 0.360352 15 0.55127 15 0.75L15 11.25C15 11.4487 14.921 11.6396 14.7803 11.7803C14.6397 11.9209 14.4489 12 14.25 12L3.34125 12Z" fill="#FFB400" fill-opacity="1.000000" fill-rule="nonzero"/>
	</g>

	<g id="microphone">
		<g clip-path="url(#clip1_1551)">
			<path id="Vector" d="M37 0C29.0177 0 22.5217 6.75342 22.5217 15.0527L22.5217 37C22.5217 45.3008 29.0177 52.0527 37 52.0527C44.9823 52.0527 51.4783 45.3008 51.4783 37L51.4783 15.0527C51.4783 6.75342 44.9823 0 37 0ZM37 48.835C31.3117 48.835 26.6062 44.374 25.855 38.6089L48.1434 38.6089C47.3938 44.376 42.6884 48.835 37 48.835ZM48.2609 35.3911L25.7391 35.3911L25.7391 15.0527C25.7391 8.52588 30.7904 3.21729 37 3.21729C43.2096 3.21729 48.2609 8.52588 48.2609 15.0527L48.2609 35.3911Z" fill="#FFB400" fill-opacity="1.000000" fill-rule="nonzero"/>
			<path id="Vector" d="M59.5217 28.9565C58.6337 28.9565 57.913 29.6772 57.913 30.5654L57.913 37C57.913 48.5312 48.5311 57.9131 37 57.9131C25.4689 57.9131 16.087 48.5312 16.087 37L16.087 30.5654C16.087 29.6772 15.3663 28.9565 14.4783 28.9565C13.5903 28.9565 12.8696 29.6772 12.8696 30.5654L12.8696 37C12.8696 49.7617 22.8354 60.2153 35.3913 61.0483L35.3913 70.7827L27.3478 70.7827C26.4598 70.7827 25.7391 71.5034 25.7391 72.3911C25.7391 73.2793 26.4598 74 27.3478 74L46.6522 74C47.5402 74 48.2609 73.2793 48.2609 72.3911C48.2609 71.5034 47.5402 70.7827 46.6522 70.7827L38.6087 70.7827L38.6087 61.0483C51.1646 60.2153 61.1304 49.7617 61.1304 37L61.1304 30.5654C61.1304 29.6772 60.4097 28.9565 59.5217 28.9565Z" fill="#FFB400" fill-opacity="1.000000" fill-rule="nonzero"/>
		</g>
	</g>

	<g id="phone">
		<path d="M0.75 0L9.75 0C9.94891 0 10.1397 0.0791016 10.2803 0.219727C10.421 0.360352 10.5 0.55127 10.5 0.75L10.5 14.25C10.5 14.4487 10.421 14.6396 10.2803 14.7803C10.1397 14.9209 9.94891 15 9.75 15L0.75 15C0.551086 15 0.360321 14.9209 0.219666 14.7803C0.07901 14.6396 0 14.4487 0 14.25L0 0.75C0 0.55127 0.07901 0.360352 0.219666 0.219727C0.360321 0.0791016 0.551086 0 0.75 0ZM5.25 11.25C5.05109 11.25 4.86032 11.3291 4.71967 11.4697C4.57901 11.6104 4.5 11.8013 4.5 12C4.5 12.1987 4.57901 12.3896 4.71967 12.5303C4.86032 12.6709 5.05109 12.75 5.25 12.75C5.44891 12.75 5.63968 12.6709 5.78033 12.5303C5.92099 12.3896 6 12.1987 6 12C6 11.8013 5.92099 11.6104 5.78033 11.4697C5.63968 11.3291 5.44891 11.25 5.25 11.25Z" fill="#FFB400" fill-opacity="1.000000" fill-rule="nonzero"/>
	</g>

	<g id="photographer">
		<g clip-path="url(#clip1_1532)">
			<path id="Vector" d="M55.3548 72.9678L74.7127 72.9678L69.7433 58.0586C68.4438 54.1597 65.1275 51.2686 61.0878 50.5112L47.8065 48.0205L47.8065 44.9468C50.9881 42.6509 53.2337 39.1533 53.8854 35.1201C56.8545 34.6182 59.129 32.0454 59.129 28.9355L59.129 20.1289C59.129 9.03027 50.0986 0 39 0C27.9014 0 18.871 9.03027 18.871 20.1289L18.871 28.9355C18.871 32.0415 21.1342 34.6294 24.0982 35.1367C24.7524 39.1699 27.0107 42.6709 30.1936 44.9658L30.1936 48.0215L16.9109 50.5127C12.8725 51.27 9.55499 54.1611 8.25543 58.0596L3.28732 72.9678L22.6452 72.9678L22.6452 70.4517L19.2245 70.4517L21.3494 61.9497L18.9087 61.3408L16.6304 70.4517L6.77719 70.4517L10.6432 58.855C11.6534 55.8228 14.2337 53.5732 17.3751 52.9834L25.389 51.4814L27.4384 60.7002C26.0998 61.2817 25.1613 62.6128 25.1613 64.1611L25.1613 74.2256C25.1613 76.3066 26.8546 78 28.9355 78L49.0645 78C51.1454 78 52.8387 76.3066 52.8387 74.2256L52.8387 64.1611C52.8387 62.6128 51.9002 61.2817 50.5629 60.7002L52.6123 51.4814L60.6261 52.9834C63.7675 53.5732 66.3466 55.8228 67.358 58.855L71.2228 70.4517L61.3697 70.4517L59.0913 61.3408L56.6507 61.9497L58.7755 70.4517L55.3548 70.4517L55.3548 72.9678ZM50.1376 51.0171L48.4003 58.8345L47.5309 55.355L42.037 55.355L46.9686 50.4233L50.1376 51.0171ZM46.1949 60.3872L31.8051 60.3872L32.4342 57.8711L45.5659 57.8711L46.1949 60.3872ZM39 54.834L32.7097 48.5435L32.7097 46.4224C34.627 47.3057 36.7544 47.8066 39 47.8066C41.2469 47.8066 43.373 47.2993 45.2903 46.4165L45.2903 48.5435L39 54.834ZM54.0968 32.478L54.0968 25.394C55.5574 25.915 56.6129 27.2988 56.6129 28.9365C56.6129 30.5747 55.5574 31.9575 54.0968 32.478ZM23.9032 32.4946C22.4388 31.9751 21.3871 30.5762 21.3871 28.9355C21.3871 27.2949 22.4388 25.896 23.9032 25.3765L23.9032 32.4946ZM21.3871 23.936L21.3871 20.1289C21.3871 10.417 29.2878 2.51611 39 2.51611C48.7123 2.51611 56.6129 10.417 56.6129 20.1289L56.6129 23.936C55.8681 23.3726 55.0076 22.9561 54.0565 22.7686C53.859 21.2827 52.5984 20.1289 51.0598 20.1289C50.2609 20.1289 49.4784 20.4536 48.8494 21.0825C46.7245 23.2075 44.0323 24.5625 41.1161 25.0029L41.1966 24.8418C41.4054 24.4214 41.5161 23.9521 41.5161 23.4829L41.5161 23.166C41.5161 21.4917 40.1537 20.1289 38.4792 20.1289C37.6803 20.1289 36.8978 20.4536 36.3316 21.0186C33.6809 23.668 30.1646 25.1372 26.4194 25.1611L26.4194 22.645L25.1613 22.645C23.7397 22.645 22.4414 23.1372 21.3871 23.936ZM26.4194 32.7095L26.4194 27.6772C30.8364 27.6533 34.9855 25.9224 38.1093 22.7988C38.4125 22.4941 39 22.7422 39 23.166L39 23.4829C39 23.5635 38.9811 23.644 38.9446 23.7168L36.9645 27.6772L39 27.6772C43.3932 27.6772 47.5221 25.9678 50.6899 22.7988C50.9944 22.4941 51.5807 22.7422 51.5807 23.166L51.5807 32.7095C51.5807 39.6465 45.937 45.2905 39 45.2905C32.063 45.2905 26.4194 39.6465 26.4194 32.7095ZM31.0314 50.4233L35.963 55.355L30.4691 55.355L29.5997 58.8345L27.8624 51.0171L31.0314 50.4233ZM28.9355 75.4839C28.2423 75.4839 27.6774 74.9204 27.6774 74.2256L27.6774 64.1611C27.6774 63.4668 28.2423 62.9033 28.9355 62.9033L32.8493 62.9033C31.2126 64.5034 30.1936 66.7305 30.1936 69.1934C30.1936 71.6567 31.2126 73.8838 32.8493 75.4839L28.9355 75.4839ZM39 75.4839C35.5315 75.4839 32.7097 72.6621 32.7097 69.1934C32.7097 65.7251 35.5315 62.9033 39 62.9033C42.4685 62.9033 45.2903 65.7251 45.2903 69.1934C45.2903 72.6621 42.4685 75.4839 39 75.4839ZM50.3226 74.2256C50.3226 74.9204 49.7577 75.4839 49.0645 75.4839L45.1507 75.4839C46.7874 73.8838 47.8065 71.6567 47.8065 69.1934C47.8065 66.7305 46.7874 64.5034 45.1507 62.9033L49.0645 62.9033C49.7577 62.9033 50.3226 63.4668 50.3226 64.1611L50.3226 74.2256Z" fill="#FFB400" fill-opacity="1.000000" fill-rule="nonzero"/>
			<path id="Vector" d="M39 65.4194C36.9192 65.4194 35.2258 67.1128 35.2258 69.1938C35.2258 71.2744 36.9192 72.9678 39 72.9678C41.0808 72.9678 42.7742 71.2744 42.7742 69.1938C42.7742 67.1128 41.0808 65.4194 39 65.4194ZM39 70.4517C38.3068 70.4517 37.7419 69.8882 37.7419 69.1938C37.7419 68.499 38.3068 67.9355 39 67.9355C39.6932 67.9355 40.2581 68.499 40.2581 69.1938C40.2581 69.8882 39.6932 70.4517 39 70.4517Z" fill="#FFB400" fill-opacity="1.000000" fill-rule="nonzero"/>
		</g>
	</g>

	<g id="popUp">
		<g>
			<path id="Vector" d="M48.8719 5.46143C48.8719 6.05908 48.3873 6.54395 47.7894 6.54395C47.1915 6.54395 46.7068 6.05908 46.7068 5.46143C46.7068 4.86377 47.1915 4.37891 47.7894 4.37891C48.3873 4.37891 48.8719 4.86377 48.8719 5.46143Z" fill="#FFB400" fill-opacity="1.000000" fill-rule="evenodd"/>
			<path id="Vector" d="M53.5241 5.46143C53.5241 6.05908 53.0395 6.54395 52.4416 6.54395C51.8437 6.54395 51.359 6.05908 51.359 5.46143C51.359 4.86377 51.8437 4.37891 52.4416 4.37891C53.0395 4.37891 53.5241 4.86377 53.5241 5.46143Z" fill="#FFB400" fill-opacity="1.000000" fill-rule="evenodd"/>
			<path id="Vector" d="M20.4759 6.54541L39.957 6.54541C40.5556 6.54541 41.041 6.06006 41.041 5.46143C41.041 4.86279 40.5556 4.37744 39.957 4.37744L20.4759 4.37744C19.8772 4.37744 19.3919 4.86279 19.3919 5.46143C19.3919 6.06006 19.8772 6.54541 20.4759 6.54541Z" fill="#FFB400" fill-opacity="1.000000" fill-rule="nonzero"/>
			<path id="Vector" d="M71.1202 55.6011L69.2177 55.6011L69.2177 48.5C69.2177 47.9014 68.7324 47.416 68.1338 47.416C67.5351 47.416 67.0498 47.9014 67.0498 48.5L67.0498 55.6011C62.404 55.6011 9.81729 55.6011 6.95038 55.6011L6.95038 18.9941C6.95038 17.52 8.14969 16.3203 9.62405 16.3203L14.7685 16.3203L14.7685 19.2407L11.9462 19.2407C10.8017 19.2407 9.87061 20.1719 9.87061 21.3164L9.87061 50.605C9.87061 51.7495 10.8017 52.6807 11.9462 52.6807L62.0536 52.6807C63.1982 52.6807 64.1292 51.7495 64.1292 50.605L64.1292 21.3164C64.1292 20.1719 63.1982 19.2407 62.0536 19.2407L59.2315 19.2407L59.2315 16.3203L64.3759 16.3203C65.8502 16.3203 67.0496 17.52 67.0496 18.9941L67.0496 43.4292C67.0496 44.0278 67.535 44.5132 68.1336 44.5132C68.7323 44.5132 69.2176 44.0278 69.2176 43.4292L69.2176 18.9941C69.2176 16.3247 67.0457 14.1523 64.3759 14.1523L59.2315 14.1523L59.2315 2.22266C59.2315 0.99707 58.2344 0 57.0086 0L16.9914 0C15.7656 0 14.7685 0.99707 14.7685 2.22266L14.7685 14.1523L9.6239 14.1523C6.95425 14.1523 4.78226 16.3242 4.78226 18.9941L4.78226 55.6011L2.87979 55.6011C1.29181 55.6011 0 56.8931 0 58.481C0 62.8823 3.5809 66.4634 7.98233 66.4634L66.0177 66.4634C70.4191 66.4634 74 62.8823 74 58.481C74 56.8931 72.7082 55.6011 71.1202 55.6011ZM12.0386 21.4087L14.7683 21.4087L14.7683 50.5127L12.0386 50.5127L12.0386 21.4087ZM61.9614 21.4087L61.9614 50.5127L59.2317 50.5127L59.2317 21.4087L61.9614 21.4087ZM16.9914 2.16797L57.0088 2.16797C57.039 2.16797 57.0637 2.19287 57.0637 2.22314L57.0637 8.75586L25.4164 8.75586C24.8177 8.75586 24.3324 9.24121 24.3324 9.83984C24.3324 10.4385 24.8177 10.9238 25.4164 10.9238L57.0637 10.9238L57.0637 50.5132L16.9363 50.5132L16.9363 10.9238L20.3487 10.9238C20.9474 10.9238 21.4327 10.4385 21.4327 9.83984C21.4327 9.24121 20.9474 8.75586 20.3487 8.75586L16.9363 8.75586L16.9363 2.22266C16.9363 2.19287 16.961 2.16797 16.9914 2.16797ZM26.5504 57.769L47.4496 57.769L47.4496 58.8584C47.4496 59.4595 46.9608 59.9482 46.36 59.9482L27.64 59.9482C27.0392 59.9482 26.5504 59.4595 26.5504 58.8584L26.5504 57.769ZM66.0177 64.2949L7.98233 64.2949C4.77634 64.2949 2.16797 61.687 2.16797 58.481C2.16797 58.0884 2.48724 57.769 2.87979 57.769L24.3824 57.769L24.3824 58.8584C24.3824 60.6548 25.8438 62.1162 27.64 62.1162L46.36 62.1162C48.1562 62.1162 49.6176 60.6548 49.6176 58.8584L49.6176 57.769L71.1202 57.769C71.5128 57.769 71.832 58.0884 71.832 58.481C71.832 61.687 69.2237 64.2949 66.0177 64.2949Z" fill="#FFB400" fill-opacity="1.000000" fill-rule="nonzero"/>
			<path id="Vector" d="M22.5482 31.0425L21.7624 31.2451C20.0179 31.6943 18.9696 33.4697 19.4191 35.2144L19.9618 37.3213C20.3401 38.79 21.6674 39.7681 23.1188 39.7681C23.7424 39.7681 24.0906 39.6045 24.8462 39.4287C25.3956 40.0688 26.233 40.4233 27.1009 40.3403L30.9021 46.1021C31.2972 46.7012 31.9621 47.0469 32.6571 47.0469C33.0878 47.0469 33.2741 46.939 34.4117 46.6631C35.5369 46.3735 36.213 45.228 35.9232 44.103L34.4739 38.4775L36.0206 38.0791C40.1412 37.0176 44.4812 38.0332 47.6978 40.7954L47.7113 40.8481C47.9202 41.6592 48.4324 42.3398 49.1535 42.7656C49.6426 43.0542 50.188 43.2021 50.7414 43.2021C51.0039 43.2021 51.2681 43.1689 51.5288 43.1016C52.3397 42.8926 53.0205 42.3804 53.4462 41.6592C53.8718 40.9385 53.9912 40.0947 53.7822 39.2842L48.0007 16.8438C47.7918 16.0327 47.2796 15.3521 46.5586 14.9263C45.8376 14.5005 44.994 14.3813 44.183 14.5903C43.3722 14.7988 42.6913 15.311 42.2657 16.0322C41.8401 16.7534 41.7207 17.5972 41.9297 18.4077L41.9432 18.4604C40.4618 22.4326 37.153 25.4194 33.0326 26.481L24.5215 28.6738C23.3957 28.9639 22.6281 29.9424 22.5482 31.0425ZM23.3908 37.5649C22.8082 37.7153 22.2115 37.3633 22.0612 36.7803L21.5185 34.6738C21.3679 34.0894 21.719 33.4951 22.3033 33.3442L22.9543 33.1768L24.0417 37.3975L23.3908 37.5649ZM33.8074 44.5801L32.686 44.8691L29.3416 39.7998L32.3744 39.0186L33.8074 44.5801ZM44.1326 17.1343C44.2638 16.9121 44.4738 16.7539 44.7239 16.6895C44.8045 16.6685 44.8853 16.6587 44.965 16.6587C45.3954 16.6587 45.7889 16.9487 45.9012 17.3843L51.6828 39.8247C51.8157 40.3408 51.504 40.8691 50.9879 41.002C50.4719 41.1353 49.9436 40.8232 49.8107 40.3071L44.029 17.8667C43.9647 17.6167 44.0014 17.3564 44.1326 17.1343ZM42.7794 21.7056L46.8616 37.5503C41.0175 34.1445 35.4519 36.0127 35.323 36.02L33.4168 28.6206C33.5338 28.5645 39.3021 27.5215 42.7794 21.7056ZM25.0623 30.7734L31.3173 29.1621L33.2235 36.561C31.3201 37.0513 28.2819 37.834 26.9687 38.1724C26.5143 38.2891 26.3995 37.8291 26.3879 37.8145L24.7222 31.3496C24.6572 31.0967 24.8098 30.8384 25.0623 30.7734Z" fill="#FFB400" fill-opacity="1.000000" fill-rule="nonzero"/>
		</g>
	</g>

	<g id="star">
		<path d="M9 13.2446L12.9107 12.2344L14.5446 17.3682L9 13.2446ZM18 6.60889L11.1161 6.60889L9 0L6.88394 6.60889L0 6.60889L5.57144 10.7051L3.45535 17.314L9.02679 13.2173L12.4554 10.7051L18 6.60889Z" fill="#FFB400" fill-opacity="1.000000" fill-rule="nonzero"/>
	</g>

	<g id="student">
		<path d="M11.7636 11.272L8.25 14.626L4.73638 11.272C2.10301 11.3809 0 13.4375 0 15.9761L0 16.3135C0 17.2451 0.791855 18.001 1.76786 18.001L14.7321 18.001C15.7081 18.001 16.5 17.2451 16.5 16.3135L16.5 15.9761C16.5 13.4375 14.397 11.3809 11.7636 11.272ZM0.500893 2.80615L0.73661 2.85889L0.73661 4.91211C0.478798 5.06006 0.29464 5.31641 0.29464 5.62598C0.29464 5.92139 0.464066 6.16748 0.703461 6.31836L0.128906 8.50879C0.0662918 8.75146 0.206253 9.00098 0.408813 9.00098L1.94833 9.00098C2.15089 9.00098 2.29085 8.75146 2.22823 8.50879L1.65369 6.31836C1.89308 6.16748 2.0625 5.92139 2.0625 5.62598C2.0625 5.31641 1.87835 5.06006 1.62054 4.91211L1.62054 3.06299L4.05134 3.62207C3.7346 4.22656 3.53571 4.90186 3.53571 5.62598C3.53571 8.11133 5.6461 10.126 8.25 10.126C10.8539 10.126 12.9643 8.11133 12.9643 5.62598C12.9643 4.90186 12.7691 4.22656 12.4487 3.62207L15.9954 2.80615C16.6657 2.65186 16.6657 1.85352 15.9954 1.69873L8.98293 0.081543C8.50413 -0.0273438 7.99955 -0.0273438 7.52076 0.081543L0.500893 1.69531C-0.165733 1.8501 -0.165733 2.65186 0.500893 2.80615Z" fill="#000000" fill-opacity="1.000000" fill-rule="nonzero"/>
	</g>

	<g id="twitter">
		<path d="M11.8901 1.14746C11.4447 1.34473 10.9725 1.47412 10.4889 1.53174C10.9986 1.22656 11.3801 0.74707 11.5623 0.181641C11.0839 0.466309 10.5595 0.666016 10.0129 0.773926C9.64577 0.380859 9.15913 0.120605 8.62865 0.0327148C8.09816 -0.0551758 7.55354 0.0351562 7.07948 0.288574C6.60542 0.54248 6.22847 0.945801 6.00723 1.43555C5.786 1.92578 5.73285 2.4751 5.85608 2.99854C4.88606 2.9502 3.9371 2.69775 3.07083 2.25879C2.20456 1.81934 1.44032 1.20312 0.827744 0.449219C0.610916 0.821777 0.496979 1.24512 0.497589 1.67627C0.497589 2.52197 0.928085 3.26904 1.58258 3.70654C1.19525 3.69434 0.816452 3.58984 0.477753 3.40186L0.477753 3.43213C0.477859 3.99512 0.672806 4.5415 1.0295 4.97754C1.38618 5.41309 1.88269 5.7124 2.43483 5.82422C2.07527 5.92188 1.69826 5.93604 1.33234 5.86621C1.48801 6.35107 1.79143 6.77539 2.20009 7.0791C2.60876 7.38281 3.10223 7.55127 3.61142 7.56104C3.10536 7.9585 2.52594 8.25195 1.90627 8.42529C1.28659 8.59863 0.638824 8.64844 0 8.57129C1.11516 9.28857 2.4133 9.66895 3.73917 9.66797C8.22675 9.66797 10.6808 5.9502 10.6808 2.72607C10.6808 2.62109 10.6779 2.51514 10.6732 2.41113C11.1509 2.06592 11.5632 1.63818 11.8907 1.14844L11.8901 1.14746Z" fill="#1B1B1B" fill-opacity="1.000000" fill-rule="nonzero"/>
	</g>

	<g id="youtube">
		<path d="M11.4001 1.45703C11.6667 2.49658 11.6667 4.6665 11.6667 4.6665C11.6667 4.6665 11.6667 6.83643 11.4001 7.87598C11.2519 8.45068 10.8185 8.90283 10.2696 9.05566C9.27267 9.3335 5.83333 9.3335 5.83333 9.3335C5.83333 9.3335 2.39575 9.3335 1.39708 9.05566C0.84584 8.90039 0.412994 8.44922 0.266586 7.87598C0 6.83643 0 4.6665 0 4.6665C0 4.6665 0 2.49658 0.266586 1.45703C0.414749 0.882812 0.84816 0.430664 1.39708 0.277832C2.39575 0 5.83333 0 5.83333 0C5.83333 0 9.27267 0 10.2696 0.277832C10.8208 0.432617 11.2537 0.884277 11.4001 1.45703ZM4.66667 6.7085L8.16667 4.6665L4.66667 2.625L4.66667 6.7085Z" fill="#1B1B1B" fill-opacity="1.000000" fill-rule="nonzero"/>
	</g>

	<g id="cat">
		<circle cx="488" cy="30" r="7" stroke="#05FF00" stroke-opacity="0.8" stroke-width="2"/>
		<circle cx="56" cy="400" r="7" stroke="#05FF00" stroke-opacity="0.8" stroke-width="2"/>
		<circle cx="525.861" cy="357.964" r="7" stroke="#FFB400" stroke-opacity="0.8" stroke-width="2"/>
		<circle cx="8" cy="8" r="7" stroke="#FFB400" stroke-opacity="0.8" stroke-width="2"/>
		<rect x="862.924" y="40.9968" width="14" height="14" transform="rotate(26.0517 862.924 40.9968)" stroke="#FFB400" stroke-opacity="0.8" stroke-width="2"/>
		<rect x="341.289" y="304.338" width="14" height="14" transform="rotate(26.0517 341.289 304.338)" stroke="#0047FF" stroke-opacity="0.8" stroke-width="2"/>
		<path d="M883.804 408L889 399L894.196 408H883.804Z" stroke="#FF2E00" stroke-opacity="0.8" stroke-width="2"/>
	</g>
</svg>
