<svg width="14.000000" height="16.000000" viewBox="0 0 14 16" fill="none" xmlns="http://www.w3.org/2000/svg" xmlns:xlink="http://www.w3.org/1999/xlink">
	<desc>
			Created with Pixso.
	</desc>
	<defs>
		<clipPath id="clip1_226">
			<rect id="Frame" width="14.000000" height="16.000000" transform="translate(0.000000 -0.714355)" fill="white" fill-opacity="0"/>
		</clipPath>
	</defs>
	<rect id="Frame" width="14.000000" height="16.000000" transform="translate(0.000000 -0.714355)" fill="#FFFFFF" fill-opacity="0"/>
	<g clip-path="url(#clip1_226)">
		<path id="Vector" d="M2.33 11.95L11.66 11.95L11.66 7.28L12.83 7.28L12.83 12.61C12.83 12.79 12.77 12.96 12.66 13.09C12.55 13.21 12.4 13.28 12.25 13.28L1.75 13.28C1.59 13.28 1.44 13.21 1.33 13.09C1.22 12.96 1.16 12.79 1.16 12.61L1.16 7.28L2.33 7.28L2.33 11.95ZM8.16 5.28L11.08 5.28L7 9.95L2.91 5.28L5.83 5.28L5.83 1.28L8.16 1.28L8.16 5.28Z" fill="#2B2B2B" fill-opacity="1.000000" fill-rule="nonzero"/>
	</g>
</svg>
